<svg width="80" height="80" viewBox="0 0 80 80" fill="none" xmlns="http://www.w3.org/2000/svg">
<rect x="1.33594" y="0.70166" width="77.9626" height="78.5331" rx="38.9813" fill="white"/>
<path d="M78.4021 34.049C78.5078 33.9235 78.5845 33.7762 78.6267 33.6176C78.6689 33.4591 78.6757 33.2931 78.6465 33.1317C76.9306 23.4374 71.6368 14.741 63.8135 8.76508C55.9902 2.78912 46.208 -0.0306097 36.4044 0.86437C26.6009 1.75935 17.4909 6.30376 10.8788 13.5975C4.26678 20.8913 0.634924 30.4025 0.702589 40.2472C0.851337 61.4204 18.6905 79.1792 39.8622 79.2359C48.4071 79.258 56.7262 76.4938 63.5588 71.3622C70.3914 66.2305 75.3649 59.0112 77.7256 50.7984C77.8046 50.5213 77.7754 50.2245 77.6439 49.968C77.5124 49.7116 77.2884 49.5147 77.0173 49.4171L75.3988 48.815C72.2911 47.7081 68.9701 47.3326 65.6938 47.7177C62.4175 48.1029 59.2741 49.2383 56.5078 51.0357C53.972 52.6862 52.0808 54.0923 52.0808 54.0923C48.7712 56.3298 44.8665 57.5229 40.8716 57.5173C29.797 57.5173 22.0267 48.4714 20.819 37.4633L19.9513 31.4422C19.8206 30.5387 19.4515 29.6863 18.8819 28.9728C18.3123 28.2594 17.5628 27.7107 16.7107 27.3833L14.4618 26.519C14.3693 26.4837 14.2864 26.4272 14.2195 26.3542C14.1526 26.2812 14.1037 26.1937 14.0765 26.0985C14.0494 26.0033 14.0448 25.903 14.0631 25.8058C14.0814 25.7085 14.1221 25.6168 14.182 25.5379C23.67 12.8652 35.2581 15.6208 35.2581 15.6208C37.1292 15.7997 38.9218 16.4612 40.4608 17.5405C42.5234 18.988 44.1363 20.9877 45.1144 23.3101C46.9157 27.4416 49.8833 30.9576 53.6535 33.427C57.4237 35.8964 61.8325 37.2118 66.3393 37.2119C66.3393 37.2119 75.3705 37.5625 78.4021 34.049Z" fill="url(#paint0_linear_151_11052)"/>
<path d="M24.8007 24.5958C26.0644 24.5958 27.0888 23.5715 27.0888 22.3078C27.0888 21.0442 26.0644 20.0198 24.8007 20.0198C23.5371 20.0198 22.5127 21.0442 22.5127 22.3078C22.5127 23.5715 23.5371 24.5958 24.8007 24.5958Z" fill="url(#paint1_linear_151_11052)"/>
<path d="M25.2836 36.5818C25.8609 40.1449 28.666 51.4576 41.2219 53.5402C41.2604 53.5448 41.2993 53.5359 41.3319 53.5149C41.3645 53.494 41.3887 53.4623 41.4005 53.4254C41.4122 53.3884 41.4107 53.3486 41.3962 53.3126C41.3817 53.2767 41.3551 53.2469 41.3211 53.2285C38.4132 51.8897 30.7947 47.4907 25.5917 36.4897C25.5748 36.4549 25.5461 36.4273 25.5107 36.4117C25.4753 36.3962 25.4355 36.3937 25.3985 36.4048C25.3615 36.4158 25.3295 36.4397 25.3085 36.4722C25.2874 36.5046 25.2786 36.5435 25.2836 36.5818Z" fill="url(#paint2_linear_151_11052)"/>
<defs>
<linearGradient id="paint0_linear_151_11052" x1="78.6643" y1="39.9688" x2="0.70166" y2="39.9688" gradientUnits="userSpaceOnUse">
<stop stop-color="#9121C2"/>
<stop offset="1" stop-color="#FF5E5E"/>
</linearGradient>
<linearGradient id="paint1_linear_151_11052" x1="27.0888" y1="22.3078" x2="22.5127" y2="22.3078" gradientUnits="userSpaceOnUse">
<stop stop-color="#9121C2"/>
<stop offset="1" stop-color="#FF5E5E"/>
</linearGradient>
<linearGradient id="paint2_linear_151_11052" x1="41.4083" y1="44.9697" x2="25.2822" y2="44.9697" gradientUnits="userSpaceOnUse">
<stop stop-color="#9121C2"/>
<stop offset="1" stop-color="#FF5E5E"/>
</linearGradient>
</defs>
</svg>
